<svg width="90" height="90" viewBox="0 0 90 90" fill="none" xmlns="http://www.w3.org/2000/svg">
<path d="M45 0C20.16 0 0 20.16 0 45C0 69.84 20.16 90 45 90C69.84 90 90 69.84 90 45C90 20.16 69.84 0 45 0ZM45 18C53.685 18 60.75 25.065 60.75 33.75C60.75 42.435 53.685 49.5 45 49.5C36.315 49.5 29.25 42.435 29.25 33.75C29.25 25.065 36.315 18 45 18ZM45 81C35.865 81 25.065 77.31 17.37 68.04C24.975 62.1 34.56 58.5 45 58.5C55.44 58.5 65.025 62.1 72.63 68.04C64.935 77.31 54.135 81 45 81Z" fill="#DBDBDB"/>
<rect x="71.2" y="71.2002" width="17.8" height="17.8" rx="8.9" fill="#999999" stroke="#FCFCFD" stroke-width="2"/>
<g clip-path="url(#clip0_602_290)">
<path d="M80.1001 81.2246C80.7214 81.2246 81.2251 80.7209 81.2251 80.0996C81.2251 79.4783 80.7214 78.9746 80.1001 78.9746C79.4788 78.9746 78.9751 79.4783 78.9751 80.0996C78.9751 80.7209 79.4788 81.2246 80.1001 81.2246Z" fill="#FCFCFD"/>
<path d="M83.1001 77.0996H81.9113L81.4463 76.5934C81.3076 76.4396 81.1051 76.3496 80.8951 76.3496H79.3051C79.0951 76.3496 78.8926 76.4396 78.7501 76.5934L78.2888 77.0996H77.1001C76.6876 77.0996 76.3501 77.4371 76.3501 77.8496V82.3496C76.3501 82.7621 76.6876 83.0996 77.1001 83.0996H83.1001C83.5126 83.0996 83.8501 82.7621 83.8501 82.3496V77.8496C83.8501 77.4371 83.5126 77.0996 83.1001 77.0996ZM80.1001 81.9746C79.0651 81.9746 78.2251 81.1346 78.2251 80.0996C78.2251 79.0646 79.0651 78.2246 80.1001 78.2246C81.1351 78.2246 81.9751 79.0646 81.9751 80.0996C81.9751 81.1346 81.1351 81.9746 80.1001 81.9746Z" fill="#FCFCFD"/>
</g>
<defs>
<clipPath id="clip0_602_290">
<rect width="9" height="9" fill="white" transform="translate(75.6001 75.5996)"/>
</clipPath>
</defs>
</svg>
